<?xml version="1.0" standalone="no"?>
<!DOCTYPE svg PUBLIC "-//W3C//DTD SVG 20010904//EN"
 "http://www.w3.org/TR/2001/REC-SVG-20010904/DTD/svg10.dtd">
<svg version="1.0" xmlns="http://www.w3.org/2000/svg"
 width="700.000000pt" height="700.000000pt" viewBox="0 0 700.000000 700.000000"
 preserveAspectRatio="xMidYMid meet">
<metadata>
Created by potrace 1.14, written by Peter Selinger 2001-2017
</metadata>
<g transform="translate(0.000000,700.000000) scale(0.100000,-0.100000)"
fill="#000000" stroke="none">
<path d="M2892 6680 c-18 -11 -39 -35 -46 -53 -8 -17 -30 -169 -50 -336 -20
-168 -37 -305 -39 -306 -1 -1 -524 -192 -1162 -425 -638 -232 -1172 -429
-1187 -436 -39 -20 -61 -67 -56 -123 2 -29 315 -897 837 -2326 458 -1254 839
-2291 846 -2305 21 -41 52 -62 97 -67 47 -5 -19 -28 1828 647 454 166 851 311
882 322 l56 19 504 -60 c277 -34 522 -61 545 -61 33 0 50 7 77 30 18 17 37 41
40 55 11 43 586 4834 586 4881 0 56 -22 99 -60 119 -28 15 -245 42 -2847 355
-413 49 -766 90 -785 90 -18 0 -48 -9 -66 -20z m-397 -2896 c-140 -1155 -244
-2056 -241 -2079 7 -54 57 -101 118 -109 23 -4 531 -65 1128 -137 596 -71
1086 -131 1088 -133 1 -2 -48 -22 -110 -45 -62 -23 -610 -223 -1218 -445
l-1105 -404 -14 32 c-42 98 -1661 4540 -1656 4545 12 12 2250 827 2253 821 1
-4 -108 -925 -243 -2046z"/>
</g>
</svg>
